# File created by Blade
# Date/Time:  Tue Sep 30 19:31:45 2014
#---------------------------------------------------------
:version 1.10
:name HOM
:units
  mass 1.0
  length 1.000000
  angle deg
:documentation
     Acclaim Skeleton File
:root
   axis xyz
   order TX TY TZ RX RY RZ
   position 0.000000 0.000000 0.000000
   orientation 0 0 0
:bonedata
   begin
      id 1
      name Spine_dum
      direction 0.000000 1.000000 0.000000
      length 3.241213
      axis 0.0 0.0 0.0 xyz
   end
   begin
      id 2
      name LeftUpLeg_dum
      direction 1.000000 0.000000 0.000000
      length 3.434019
      axis 0.0 0.0 0.0 xyz
   end
   begin
      id 3
      name RightUpLeg_dum
      direction -1.000000 0.000000 0.000000
      length 3.434019
      axis 0.0 0.0 0.0 xyz
   end
   begin
      id 4
      name Spine
      direction 0.000000 1.000000 0.000000
      length 0.000000
      axis 0.0 0.0 0.0 xyz
      dof rx ry rz
   end
   begin
      id 5
      name Spine_dum1
      direction 0.000000 1.000000 0.000000
      length 18.382958
      axis 0.0 0.0 0.0 xyz
   end
   begin
      id 6
      name Spine_dum2
      direction 0.000000 1.000000 0.000000
      length 12.828261
      axis 0.0 0.0 0.0 xyz
   end
   begin
      id 7
      name Spine_dum3
      direction 0.000000 1.000000 0.000000
      length 12.828261
      axis 0.0 0.0 0.0 xyz
   end
   begin
      id 8
      name Head
      direction 0.000000 1.000000 0.000000
      length 4.527550
      axis 0.0 0.0 0.0 xyz
      dof rx ry rz
   end
   begin
      id 9
      name LeftShoulder
      direction 1.000000 0.000000 0.000000
      length 7.748055
      axis 0.0 0.0 -90.0 xyz
      dof rx ry rz
   end
   begin
      id 10
      name LeftArm
      direction 1.000000 0.000000 0.000000
      length 10.635614
      axis 0.0 0.0 -90.0 xyz
      dof rx ry rz
   end
   begin
      id 11
      name LeftForeArm
      direction 1.000000 0.000000 0.000000
      length 8.346755
      axis 0.0 0.0 -90.0 xyz
      dof ry rz rx
   end
   begin
      id 12
      name LeftHand
      direction 0.000000 0.000000 0.000000
      length 0.000000
      axis 0.0 0.0 -90.0 xyz
      dof rx ry rz
   end
   begin
      id 13
      name LeftHand_dum1
      direction 0.000000 0.000000 0.000000
      length 0.000000
      axis 0.0 0.0 -90.0 xyz
   end
   begin
      id 14
      name LeftHand_dum2
      direction 1.000000 0.000000 0.000000
      length 3.937000
      axis 0.0 0.0 -90.0 xyz
   end
   begin
      id 15
      name LeftHandThumb1
      direction 0.000000 0.000000 1.000000
      length 3.937000
      axis 0.0 0.0 -90.0 xyz
      dof rx rz ry
   end
   begin
      id 16
      name RightShoulder
      direction -1.000000 0.000000 0.000000
      length 7.748055
      axis 0.0 0.0 90.0 xyz
      dof rx ry rz
   end
   begin
      id 17
      name RightArm
      direction -1.000000 0.000000 0.000000
      length 10.635614
      axis 0.0 0.0 90.0 xyz
      dof rx ry rz
   end
   begin
      id 18
      name RightForeArm
      direction -1.000000 0.000000 0.000000
      length 8.346755
      axis 0.0 0.0 90.0 xyz
      dof ry rz rx
   end
   begin
      id 19
      name RightHand
      direction 0.000000 0.000000 0.000000
      length 0.000000
      axis 0.0 0.0 90.0 xyz
      dof rx ry rz
   end
   begin
      id 20
      name RightHand_dum1
      direction 0.000000 0.000000 0.000000
      length 0.000000
      axis 0.0 0.0 90.0 xyz
   end
   begin
      id 21
      name RightHand_dum2
      direction -1.000000 0.000000 0.000000
      length 3.937000
      axis 0.0 0.0 90.0 xyz
   end
   begin
      id 22
      name RightHandThumb1
      direction 0.000000 0.000000 1.000000
      length 3.937000
      axis 0.0 0.0 90.0 xyz
      dof rx rz ry
   end
   begin
      id 23
      name LeftUpLeg
      direction 0.000000 -1.000000 0.000000
      length 15.713025
      axis 0.0 0.0 0.0 xyz
      dof rx ry rz
   end
   begin
      id 24
      name LeftLeg
      direction 0.000000 -1.000000 0.000000
      length 14.435119
      axis 0.0 0.0 0.0 xyz
      dof rx ry rz
   end
   begin
      id 25
      name LeftFoot
      direction 0.000000 -0.258819 0.965926
      length 4.938895
      axis 15.0 0.0 0.0 xyz
      dof rx ry rz
   end
   begin
      id 26
      name LeftToeBase
      direction 0.000000 0.000000 1.000000
      length 2.952750
      axis 0.0 0.0 0.0 xyz
      dof rx ry rz
   end
   begin
      id 27
      name RightUpLeg
      direction 0.000000 -1.000000 0.000000
      length 15.713025
      axis 0.0 0.0 0.0 xyz
      dof rx ry rz
   end
   begin
      id 28
      name RightLeg
      direction 0.000000 -1.000000 0.000000
      length 14.435119
      axis 0.0 0.0 0.0 xyz
      dof rx ry rz
   end
   begin
      id 29
      name RightFoot
      direction 0.000000 -0.258819 0.965926
      length 4.938895
      axis 15.0 0.0 0.0 xyz
      dof rx ry rz
   end
   begin
      id 30
      name RightToeBase
      direction 0.000000 0.000000 1.000000
      length 2.952750
      axis 0.0 0.0 0.0 xyz
      dof rx ry rz
   end
:hierarchy
   begin
      root Spine_dum LeftUpLeg_dum RightUpLeg_dum
      Spine_dum Spine
      LeftUpLeg_dum LeftUpLeg
      RightUpLeg_dum RightUpLeg
      Spine Spine_dum1 Spine_dum2 Spine_dum3
      Spine_dum1 Head
      Spine_dum2 LeftShoulder
      Spine_dum3 RightShoulder
      LeftShoulder LeftArm
      LeftArm LeftForeArm
      LeftForeArm LeftHand
      LeftHand LeftHand_dum1 LeftHand_dum2
      LeftHand_dum1 LeftHandThumb1
      RightShoulder RightArm
      RightArm RightForeArm
      RightForeArm RightHand
      RightHand RightHand_dum1 RightHand_dum2
      RightHand_dum1 RightHandThumb1
      LeftUpLeg LeftLeg
      LeftLeg LeftFoot
      LeftFoot LeftToeBase
      RightUpLeg RightLeg
      RightLeg RightFoot
      RightFoot RightToeBase
   end

# File created by Blade
# Date/Time:  Mon Sep 22 19:00:17 2014
# Frame Rate: 120.000 fps
#------------------------------------------------------
:FULLY-SPECIFIED
:DEGREES
2089
root -0.625950 32.831231 -4.099456 40.177171 -0.005662 0.620055
Spine -44.696803 -4.003819 -1.182744
Head 18.871367 -11.405829 -11.331830
LeftShoulder -14.415084 42.724205 8.726567
LeftArm 70.949062 34.331471 -52.100914
LeftForeArm 8.569781 0.000000 7.049665
LeftHand -18.781282 -0.000000 -6.198260
LeftHandThumb1 -26.253704 0.000000 33.147579
RightShoulder -31.628759 -11.697107 -45.983023
RightArm -237.034798 59.561289 -235.647240
RightForeArm 81.821879 -0.000000 150.190550
RightHand 11.265624 -0.000000 28.086315
RightHandThumb1 -24.326973 -0.000000 -32.862282
LeftUpLeg -35.057733 6.467986 -2.200716
LeftLeg -0.467535 -0.000000 0.000000
LeftFoot -1.678558 0.300882 -2.986843
LeftToeBase 2.000758 -0.000000 -0.000000
RightUpLeg -35.769365 -10.708311 5.473624
RightLeg -2.274162 -0.000000 0.000000
RightFoot -4.637706 -4.061827 19.087277
RightToeBase 16.185388 -0.000000 -0.000000
2090
root -0.623419 32.830781 -4.099519 40.194500 0.025112 0.626113
Spine -44.705905 -4.008007 -1.163204
Head 18.788202 -11.405008 -11.361545
LeftShoulder -14.427621 42.741961 8.704583
LeftArm 70.887480 34.286318 -52.171586
LeftForeArm 8.551842 -0.000000 7.037130
LeftHand -18.895744 0.000000 -6.009001
LeftHandThumb1 -26.253704 0.000000 33.147579
RightShoulder -31.645209 -11.684083 -45.995919
RightArm -237.085547 59.563001 -235.686356
RightForeArm 81.807901 0.000000 150.205497
RightHand 11.268369 -0.000000 28.104958
RightHandThumb1 -24.326973 -0.000000 -32.862282
LeftUpLeg -35.083114 6.456228 -2.206077
LeftLeg -0.461133 -0.000000 0.000000
LeftFoot -1.679608 0.288626 -2.959074
LeftToeBase 1.965397 -0.000000 -0.000000
RightUpLeg -35.784860 -10.699394 5.458820
RightLeg -2.267712 -0.000000 0.000000
RightFoot -4.665880 -4.097332 19.077589
RightToeBase 16.206362 -0.000000 -0.000000
2091
root -0.621800 32.830358 -4.098747 40.215544 0.068973 0.632398
Spine -44.723642 -4.026687 -1.132802
Head 18.720153 -11.394741 -11.383553
LeftShoulder -14.432806 42.743288 8.697433
LeftArm 70.825685 34.263894 -52.221896
LeftForeArm 8.533921 -0.000000 7.021389
LeftHand -18.914766 -0.000000 -5.958747
LeftHandThumb1 -26.253704 0.000000 33.147579
RightShoulder -31.654475 -11.685386 -45.994288
RightArm -237.001191 59.522242 -235.577638
RightForeArm 81.834867 -0.000000 150.209831
RightHand 11.248919 0.000000 28.078448
RightHandThumb1 -24.326973 -0.000000 -32.862282
LeftUpLeg -35.107085 6.430899 -2.197417
LeftLeg -0.460838 -0.000000 0.000000
LeftFoot -1.681906 0.266246 -2.968940
LeftToeBase 2.001032 -0.000000 -0.000000
RightUpLeg -35.803930 -10.713633 5.465243
RightLeg -2.258305 -0.000000 0.000000
RightFoot -4.681844 -4.116829 19.071215
RightToeBase 16.179982 -0.000000 -0.000000
2092
root -0.620595 32.830225 -4.097737 40.229106 0.092377 0.633470
Spine -44.737420 -4.030308 -1.116936
Head 18.675048 -11.398355 -11.402412
LeftShoulder -14.429024 42.740505 8.699002
LeftArm 70.802548 34.266484 -52.203710
LeftForeArm 8.522237 -0.000000 6.997074
LeftHand -18.885941 -0.000000 -5.943215
LeftHandThumb1 -26.253704 0.000000 33.147579
RightShoulder -31.645088 -11.669856 -46.000725
RightArm -236.911361 59.493211 -235.441030
RightForeArm 81.847729 -0.000000 150.235603
RightHand 11.295419 -0.000000 27.967857
RightHandThumb1 -24.326973 -0.000000 -32.862282
LeftUpLeg -35.122197 6.427043 -2.199598
LeftLeg -0.460882 -0.000000 0.000000
LeftFoot -1.678512 0.256521 -2.965218
LeftToeBase 1.985146 -0.000000 -0.000000
RightUpLeg -35.821898 -10.724576 5.472700
RightLeg -2.241887 -0.000000 0.000000
RightFoot -4.704077 -4.116123 19.094859
RightToeBase 16.195856 -0.000000 -0.000000
2093
root -0.620164 32.830032 -4.097986 40.266370 0.141159 0.627104
Spine -44.774724 -4.055968 -1.063556
Head 18.625558 -11.389415 -11.430953
LeftShoulder -14.440093 42.746107 8.695214
LeftArm 70.804930 34.281830 -52.160607
LeftForeArm 8.529389 -0.000000 6.980441
LeftHand -18.743436 0.000000 -6.182983
LeftHandThumb1 -26.253704 0.000000 33.147579
RightShoulder -31.628847 -11.640983 -46.030891
RightArm -236.848788 59.449530 -235.302805
RightForeArm 81.834295 0.000000 150.268728
RightHand 11.322167 0.000000 27.879730
RightHandThumb1 -24.326973 -0.000000 -32.862282
LeftUpLeg -35.172475 6.416179 -2.185647
LeftLeg -0.447658 -0.000000 0.000000
LeftFoot -1.688724 0.225690 -2.958711
LeftToeBase 2.007228 -0.000000 -0.000000
RightUpLeg -35.858702 -10.731762 5.496421
RightLeg -2.231559 -0.000000 0.000000
RightFoot -4.724942 -4.139742 19.110691
RightToeBase 16.236118 -0.000000 -0.000000
2094
root -0.619784 32.830000 -4.095849 40.268347 0.146617 0.630917
Spine -44.782180 -4.061137 -1.058321
Head 18.599552 -11.384514 -11.441103
LeftShoulder -14.442268 42.731268 8.701080
LeftArm 70.804244 34.313375 -52.095656
LeftForeArm 8.485067 -0.000000 6.948031
LeftHand -18.708388 -0.000000 -6.213521
LeftHandThumb1 -26.253704 0.000000 33.147579
RightShoulder -31.613736 -11.632360 -46.026541
RightArm -236.773914 59.414401 -235.185134
RightForeArm 81.794270 -0.000000 150.303284
RightHand 11.375575 -0.000000 27.854435
RightHandThumb1 -24.326973 -0.000000 -32.862282
LeftUpLeg -35.173999 6.440121 -2.207380
LeftLeg -0.448482 -0.000000 0.000000
LeftFoot -1.683884 0.191671 -2.947686
LeftToeBase 1.997820 -0.000000 -0.000000
RightUpLeg -35.861711 -10.732627 5.491685
RightLeg -2.220389 -0.000000 0.000000
RightFoot -4.725486 -4.146925 19.100055
RightToeBase 16.155734 -0.000000 -0.000000
2095
root -0.618541 32.829787 -4.094625 40.271610 0.159539 0.636352
Spine -44.785958 -4.062078 -1.055087
Head 18.576753 -11.403463 -11.461697
LeftShoulder -14.439280 42.715139 8.703841
LeftArm 70.816310 34.337155 -52.032575
LeftForeArm 8.429087 -0.000000 6.897879
LeftHand -18.823622 0.000000 -6.097906
LeftHandThumb1 -26.253704 0.000000 33.147579
RightShoulder -31.607054 -11.595118 -46.037577
RightArm -236.780037 59.414114 -235.161403
RightForeArm 81.751435 -0.000000 150.320679
RightHand 11.380233 0.000000 27.866500
RightHandThumb1 -24.326973 -0.000000 -32.862282
LeftUpLeg -35.181869 6.442249 -2.219264
LeftLeg -0.439634 -0.000000 0.000000
LeftFoot -1.691812 0.179932 -2.928471
LeftToeBase 1.982095 -0.000000 -0.000000
RightUpLeg -35.869708 -10.746492 5.494825
RightLeg -2.205764 -0.000000 0.000000
RightFoot -4.750277 -4.148528 19.102636
RightToeBase 16.207021 -0.000000 -0.000000
